Wyatt.Earps.Revenge.2012.HDTV.AC3-5.1.XviD-SiC

 
http://www.imdb.com/title/tt1861439/



MediaInfo:
General
Complete name                            : Wyatt.Earps.Revenge.2012.HDTV.AC3-5.1.XviD-SiC.avi
Format                                   : AVI
Format/Info                              : Audio Video Interleave
File size                                : 1.41 GiB
Duration                                 : 1h 31mn
Overall bit rate                         : 2 197 Kbps

Video
ID                                       : 0
Format                                   : MPEG-4 Visual
Format profile                           : Advanced Simple@L5
Format settings, BVOP                    : 1
Format settings, QPel                    : No
Format settings, GMC                     : No warppoints
Format settings, Matrix                  : Default (H.263)
Codec ID                                 : XVID
Codec ID/Hint                            : XviD
Duration                                 : 1h 31mn
Bit rate                                 : 1 799 Kbps
Width                                    : 720 pixels
Height                                   : 400 pixels
Display aspect ratio                     : 16:9
Frame rate                               : 59.940 fps
Color space                              : YUV
Chroma subsampling                       : 4:2:0
Bit depth                                : 8 bits
Scan type                                : Progressive
Compression mode                         : Lossy
Bits/(Pixel*Frame)                       : 0.104
Stream size                              : 1.15 GiB (82%)
Writing library                          : XviD 1.2.1 (UTC 2008-12-04)

Audio
ID                                       : 1
Format                                   : AC-3
Format/Info                              : Audio Coding 3
Mode extension                           : CM (complete main)
Format settings, Endianness              : Big
Codec ID                                 : 2000
Duration                                 : 1h 31mn
Bit rate mode                            : Constant
Bit rate                                 : 384 Kbps
Channel(s)                               : 6 channels
Channel positions                        : Front: L C R, Side: L R, LFE
Sampling rate                            : 48.0 KHz
Bit depth                                : 16 bits
Compression mode                         : Lossy
Stream size                              : 252 MiB (17%)
Alignment                                : Aligned on interleaves
Interleave, duration                     : 64 ms (3.84 video frames)
Interleave, preload duration             : 192 ms
Title                                    : Wyatt.Earps.Revenge.2012.HDTV.AC3-
5.1-SiC.dga PID 1100 3_2ch 48KHz 384Kbps DELAY -18ms


